<svg class="t796__svg" style="width:100%;height:0.5vw;fill:#f0f0f0;"
    xmlns="http://www.w3.org/2000/svg" viewBox="0 0 1000 10" preserveAspectRatio="none">
    <path d="M992 8.2L983.8 0l-8.2 8.2-8.2-8.2-8.2 8.2L951 0l-8.2 8.2-8.2-8.2-8.2 8.2-8.2-8.2-8.2 8.2-8.2-8.2-8.2 8.2-8.2-8.2-8.2 8.2L869 0l-8.2 8.2-8.2-8.2-8.2 8.2-8.2-8.2-8.2 8.2-8.2-8.2-8.2 8.2-8.2-8.2-8.2 8.2L787 0l-8.2 8.2-8.2-8.2-8.2 8.2-8.2-8.2-8.2 8.2-8.2-8.2-8.2 8.2-8.2-8.2-8.2 8.2L705 0l-8.2 8.2-8.2-8.2-8.2 8.2-8.2-8.2-8.2 8.2-8.2-8.2-8.2 8.2-8.2-8.2-8.2 8.2L623 0l-8.2 8.2-8.2-8.2-8.2 8.2-8.2-8.2-8.2 8.2-8.2-8.2-8.2 8.2-8.2-8.2-8.2 8.2L541 0l-8.2 8.2-8.2-8.2-8.2 8.2-8.2-8.2-8.2 8.2-8.2-8.2-8.2 8.2-8.2-8.2-8.2 8.2L459 0l-8.2 8.2-8.2-8.2-8.2 8.2-8.2-8.2-8.2 8.2-8.2-8.2-8.2 8.2-8.2-8.2-8.2 8.2L377 0l-8.2 8.2-8.2-8.2-8.2 8.2-8.2-8.2-8.2 8.2-8.2-8.2-8.2 8.2-8.2-8.2-8.2 8.2L295 0l-8.2 8.2-8.2-8.2-8.2 8.2-8.2-8.2-8.2 8.2-8.2-8.2-8.2 8.2-8.2-8.2-8.2 8.2L213 0l-8.2 8.2-8.2-8.2-8.2 8.2-8.2-8.2-8.2 8.2-8.2-8.2-8.2 8.2-8.2-8.2-8.2 8.2L131 0l-8.2 8.2-8.2-8.2-8.2 8.2L98.2 0 90 8.2 81.8 0l-8.2 8.2L65.4 0l-8.2 8.2L49 0l-8.2 8.2L32.6 0l-8.2 8.2L16.2 0 8 8.2-.2 0v10h1000.4V0"></path>
</svg>